<?xml version="1.0" encoding="utf-8"?>
<!-- Generator: Adobe Illustrator 27.5.0, SVG Export Plug-In . SVG Version: 6.00 Build 0)  -->
<svg version="1.1" xmlns="http://www.w3.org/2000/svg" xmlns:xlink="http://www.w3.org/1999/xlink" x="0px" y="0px"
	 viewBox="0 0 500 500" style="enable-background:new 0 0 500 500;" xml:space="preserve">
<g id="BACKGROUND">
	<rect style="fill:#DEEEFF;" width="500" height="500"/>
</g>
<g id="OBJECTS">
	<g>
		<path style="fill:#FFFFFF;" d="M276.232,284.938c-24.679,5.327-49.506,10.674-74.732,11.697
			c-25.226,1.023-51.122-2.492-73.567-14.052c-22.445-11.561-41.09-31.882-46.965-56.436c-5.041-21.064-0.141-44.287,12.979-61.52
			c13.12-17.233,34.202-28.135,55.848-28.881c4.762-0.164,9.634,0.122,14.187-1.284c4.553-1.406,8.84-5.038,9.251-9.785
			c0.595-6.88-6.82-11.757-13.591-13.112c-6.772-1.355-14.21-1.01-19.963-4.832c-7.152-4.752-9.214-15.044-6.058-23.031
			c3.156-7.986,10.508-13.726,18.489-16.896c7.98-3.17,16.643-4.107,25.181-5.015c33.272-3.538,66.544-7.076,99.817-10.614
			c44.401-4.722,94.89,1.968,123.066,36.607c28.176,34.639,32.14,87.027,9.496,125.511c-13.278,22.566-34.367,39.838-57.679,51.759
			C328.677,276.975,301.825,279.413,276.232,284.938z"/>
		<path style="fill:#97B8FF;" d="M396.229,458.915c0,6.673-75.932,6.673-169.6,6.673s-169.6,0-169.6-6.673
			c0-6.673,75.932-6.673,169.6-6.673S396.229,452.243,396.229,458.915z"/>
		<g>
			<polygon style="fill:#FF866A;" points="110.239,314.863 106.167,321.916 114.312,321.916 			"/>
			<polygon style="fill:#3E49E3;" points="449.204,216.806 453.276,209.753 445.132,209.753 			"/>
			<polygon style="fill:#FFB800;" points="204.952,45.982 209.025,38.929 200.88,38.929 			"/>
			<path style="fill:#FF866A;" d="M440.551,106.426c0,0.87-0.705,1.576-1.576,1.576c-0.87,0-1.576-0.705-1.576-1.576
				c0-0.87,0.705-1.576,1.576-1.576C439.846,104.851,440.551,105.556,440.551,106.426z"/>
			<path style="fill:#3E49E3;" d="M175.048,84.092c0,0.87-0.705,1.575-1.576,1.575c-0.87,0-1.576-0.705-1.576-1.575
				c0-0.87,0.705-1.576,1.576-1.576C174.343,82.516,175.048,83.222,175.048,84.092z"/>
			<path style="fill:#FFB800;" d="M136.486,206.585c0,0.87-0.705,1.576-1.576,1.576c-0.87,0-1.576-0.705-1.576-1.576
				c0-0.87,0.705-1.576,1.576-1.576C135.781,205.009,136.486,205.715,136.486,206.585z"/>
			<g>
				
					<line style="fill:none;stroke:#FFB800;stroke-linecap:round;stroke-miterlimit:10;" x1="288.828" y1="92.777" x2="298.351" y2="83.255"/>
				
					<line style="fill:none;stroke:#FFB800;stroke-linecap:round;stroke-miterlimit:10;" x1="288.828" y1="83.255" x2="298.351" y2="92.777"/>
			</g>
			<g>
				
					<line style="fill:none;stroke:#FF866A;stroke-linecap:round;stroke-miterlimit:10;" x1="418.951" y1="282.95" x2="428.474" y2="273.427"/>
				
					<line style="fill:none;stroke:#FF866A;stroke-linecap:round;stroke-miterlimit:10;" x1="418.951" y1="273.427" x2="428.474" y2="282.95"/>
			</g>
			<g>
				
					<line style="fill:none;stroke:#3E49E3;stroke-linecap:round;stroke-miterlimit:10;" x1="75.617" y1="124.09" x2="85.14" y2="114.567"/>
				
					<line style="fill:none;stroke:#3E49E3;stroke-linecap:round;stroke-miterlimit:10;" x1="75.617" y1="114.567" x2="85.14" y2="124.09"/>
			</g>
		</g>
	</g>
	<g>
		<g>
			<g>
				<path style="fill:#FFCAB5;" d="M161.617,408.354l-7.013,22.172c-2.227,7.04-6.333,13.339-11.876,18.218l-4.214,3.709
					c-2.884-2.182-5.158,2.72-2.26,3.503h53.615l15.084-47.603H161.617z"/>
				<path style="fill:none;stroke:#060305;stroke-linecap:round;stroke-linejoin:round;stroke-miterlimit:10;" d="M137.177,454.564
					c0.043-1,0.721-1.945,1.654-2.307c0.934-0.362,2.071-0.121,2.777,0.589"/>
				<path style="fill:none;stroke:#060305;stroke-linecap:round;stroke-linejoin:round;stroke-miterlimit:10;" d="M141.619,454.711
					c-0.633-1.034-0.208-2.565,0.867-3.125c1.076-0.56,2.574-0.029,3.057,1.083"/>
				<path style="fill:none;stroke:#060305;stroke-linecap:round;stroke-linejoin:round;stroke-miterlimit:10;" d="M145.319,454.909
					c-0.423-0.929-0.201-2.112,0.528-2.826c0.73-0.714,1.917-0.909,2.837-0.466"/>
				<path style="fill:none;stroke:#060305;stroke-linecap:round;stroke-linejoin:round;stroke-miterlimit:10;" d="M149.033,454.222
					c-0.422-1.723,0.877-3.665,2.631-3.932c1.754-0.267,3.573,1.199,3.683,2.97"/>
			</g>
			<g>
				<path style="fill:#3E49E3;" d="M136.482,458.213h53.553c0.868,0,1.572-0.704,1.572-1.572l0,0c0-0.868-0.704-1.572-1.572-1.572
					h-53.553c-0.868,0-1.572,0.704-1.572,1.572l0,0C134.91,457.509,135.614,458.213,136.482,458.213z"/>
				<path style="fill:none;stroke:#3E49E3;stroke-width:4;stroke-miterlimit:10;" d="M154.45,425.424
					c14.927,3.648,28.642,12.093,38.619,23.779"/>
				<path style="fill:none;stroke:#3E49E3;stroke-width:4;stroke-miterlimit:10;" d="M147.636,440.908
					c5.895,3.886,10.873,9.155,14.419,15.26"/>
			</g>
		</g>
		<g>
			<g>
				<path style="fill:#FFCAB5;" d="M319.115,408.354l-4.1,22.21c-1.275,6.91,0.014,14.047,3.626,20.074l1.16,1.936
					c3.038-1.905,5.394,1.257,3.289,3.383h-55.302l8.341-46.913L319.115,408.354z"/>
				<path style="fill:none;stroke:#060305;stroke-linecap:round;stroke-linejoin:round;stroke-miterlimit:10;" d="M299.116,454.325
					c-0.516-1.899,0.874-4.089,2.813-4.43c1.938-0.341,3.993,1.244,4.155,3.205c0.01-1.413,1.186-2.527,2.598-2.527
					c1.413,0,2.7,1.279,2.709,2.691c0.136-1.217,1.153-1.881,2.377-1.905c1.224-0.023,2.389,0.959,2.572,2.17
					c-0.189-0.783,0.419-1.631,1.206-1.801c0.787-0.17,1.635,0.277,2.039,0.973c0.404,0.697,0.394,1.587,0.083,2.329"/>
			</g>
			<g>
				<path style="fill:#3E49E3;" d="M268.312,458.213h55.057c0.868,0,1.572-0.704,1.572-1.572l0,0c0-0.868-0.704-1.572-1.572-1.572
					h-55.057c-0.868,0-1.572,0.704-1.572,1.572l0,0C266.74,457.509,267.444,458.213,268.312,458.213z"/>
				<path style="fill:none;stroke:#3E49E3;stroke-width:4;stroke-miterlimit:10;" d="M284.874,456.102
					c7.548-9.046,19.328-14.402,31.107-14.144"/>
				<path style="fill:none;stroke:#3E49E3;stroke-width:4;stroke-miterlimit:10;" d="M268.114,446.509
					c11.804-13.365,31.261-19.443,48.573-15.175"/>
			</g>
		</g>
		<g>
			<polygon style="fill:#FFB800;" points="156.901,416.151 323.95,416.151 332.848,325.661 291.786,151.061 243.579,155.919 
				189.868,299.888 			"/>
			<path style="fill:none;stroke:#060305;stroke-linecap:round;stroke-linejoin:round;stroke-miterlimit:10;" d="M159.76,408.455
				c55.24-2.386,110.479-4.773,165.718-7.159"/>
		</g>
		<g>
			<path style="fill:#E73A3C;" d="M158.446,217.881c-7.246-21.519,2.918-35.232,26.217-51.924
				c23.299-16.692,70.088-35.952,70.088-35.952s17.475,3.337,37.035,6.673s24.379,12.107,41.803,25.33
				c17.423,13.223,31.117,26.913,31.117,26.913l8.5,5.456c0,0,1.513,77.866,1.152,90.25c-0.361,12.383-9.333,13.125-15.319,1.818
				c-5.987-11.307-20.202-43.61-28.881-59.926c10.104,48.928,7.18,85.612,5.182,153.028l-55.007-8.304l6.783-89.468
				c3.086-40.706-1.512-81.63-13.555-120.637l-4.754-15.399l-16.76,6.563c-2.238,91.018-8.157,98.371-34.604,219.586h-81.576
				c5.695-29.218,48.797-49.978,67.153-148.914L158.446,217.881z"/>
			<path style="fill:none;stroke:#060305;stroke-linecap:round;stroke-linejoin:round;stroke-miterlimit:10;" d="M299.101,140.76
				c10.712,29.75,21.424,59.5,32.136,89.25"/>
			<path style="fill:none;stroke:#060305;stroke-linecap:round;stroke-linejoin:round;stroke-miterlimit:10;" d="M286.499,192.286
				c1.498,7.906,2.997,15.811,4.495,23.717"/>
			<path style="fill:none;stroke:#060305;stroke-linecap:round;stroke-linejoin:round;stroke-miterlimit:10;" d="M293.448,192.667
				c0.76,6.423,1.52,12.847,2.28,19.27"/>
			<path style="fill:none;stroke:#060305;stroke-linecap:round;stroke-linejoin:round;stroke-miterlimit:10;" d="M303.429,166.289
				c2.799,14.713,5.598,29.426,8.397,44.139"/>
			<path style="fill:none;stroke:#060305;stroke-linecap:round;stroke-linejoin:round;stroke-miterlimit:10;" d="M318.152,215.212
				c4.482,40.611,4.815,81.678,0.993,122.356"/>
			<path style="fill:none;stroke:#060305;stroke-linecap:round;stroke-linejoin:round;stroke-miterlimit:10;" d="M312.033,214.902
				c4.027,49.9,1.851,100.297-6.462,149.664"/>
			<path style="fill:none;stroke:#060305;stroke-linecap:round;stroke-linejoin:round;stroke-miterlimit:10;" d="M294.972,216.362
				c1.92,32.633,3.841,65.266,5.761,97.899"/>
			<path style="fill:none;stroke:#060305;stroke-linecap:round;stroke-linejoin:round;stroke-miterlimit:10;" d="M282.447,139.642
				c1.414,15.194,2.829,30.388,4.243,45.582"/>
			<path style="fill:none;stroke:#060305;stroke-linecap:round;stroke-linejoin:round;stroke-miterlimit:10;" d="M241.468,218.957
				c-4.773,47.952-14.057,95.454-27.69,141.675"/>
			<path style="fill:none;stroke:#060305;stroke-linecap:round;stroke-linejoin:round;stroke-miterlimit:10;" d="M234.862,220.261
				c-3.855,13.833-7.71,27.666-11.565,41.499"/>
			<path style="fill:none;stroke:#060305;stroke-linecap:round;stroke-linejoin:round;stroke-miterlimit:10;" d="M213.849,226.389
				c-4.744,42.477-16.304,84.187-34.102,123.046"/>
			<path style="fill:none;stroke:#060305;stroke-linecap:round;stroke-linejoin:round;stroke-miterlimit:10;" d="M190.084,298.488
				c-11.855,21.673-23.711,43.346-35.566,65.019"/>
			<path style="fill:none;stroke:#060305;stroke-linecap:round;stroke-linejoin:round;stroke-miterlimit:10;" d="M345.869,207.087
				c2.679,53.558,18.249,80.825,18.249,80.825"/>
			<path style="fill:none;stroke:#060305;stroke-linecap:round;stroke-linejoin:round;stroke-miterlimit:10;" d="M338.965,181.835
				c-4.73,15.316,4.282,44.816,4.77,63.327"/>
		</g>
		<g>
			<path style="fill:#9D3D39;" d="M272.795,163.734c2.66,1.165,6.089,0.148,7.683-2.278c1.231-1.873,1.482-4.556,0.555-6.593
				c-1.135-2.493-2.168-5.029-3.02-7.632c-3.291-10.066-7.139-20.193-8.643-30.559c-0.294-2.028-2.492-3.349-4.533-3.169
				c-0.665-1.674-1.836-3.711-2.5-5.385c2.224-0.837,3.905-2.968,4.2-5.325c0.296-2.357-0.807-4.838-2.755-6.197
				c-1.393-1.363-3.832-1.472-5.621-0.698c-0.878-3.673-4.372-6.554-8.145-6.716s-7.414,2.506-8.605,6.09
				c-3.287-1.648-7.6-0.935-10.181,1.684c-2.581,2.619-3.509,7.536-1.813,10.799c-0.84,0.139-1.507,0.97-1.46,1.82
				c0.047,0.85,0.8,1.604,1.65,1.65c-1.309,1.526-1.903,3.892-1.636,5.884c0.267,1.993,1.417,3.85,3.081,4.978
				c5.819,12.627,11.854,25.391,17.674,38.018c1.133,2.458,2.471,4.849,5.095,5.508c2.625,0.658,5.593-0.363,7.257-2.498
				c0.975,2.09,3.339,3.645,5.644,3.715C269.028,166.899,271.695,165.761,272.795,163.734z"/>
			<g>
				<path style="fill:#FFCAB5;" d="M238.84,113.637c-2.381-0.195-4.806,1.273-5.739,3.472c-0.933,2.199-0.301,4.963,1.494,6.539
					c1.795,1.576,4.617,1.844,6.677,0.635L238.84,113.637z"/>
				<path style="fill:none;stroke:#060305;stroke-linecap:round;stroke-linejoin:round;stroke-miterlimit:10;" d="M235.723,118.034
					c1.144,0.082,2.288,0.164,3.431,0.246"/>
			</g>
			<g>
				<path style="fill:#FFCAB5;" d="M266.56,114.788c-0.943-3.772-2.354-7.42-4.142-10.873c-1.974,0.253-3.981,0.068-5.769-0.804
					c-0.181,1.474-1.617,2.478-3.037,2.915c-1.419,0.437-2.95,0.512-4.304,1.123c-1.533,0.693-2.459,2.246-3.486,3.578
					c-1.114,1.444-2.228,2.887-3.341,4.331c0.886,1.704,1.86,3.347,2.746,5.051c4.147-1.4,8.294-3.03,12.441-4.43
					C260.413,114.752,263.667,114.64,266.56,114.788z"/>
				<circle style="fill:#060305;" cx="252.046" cy="113.27" r="0.84"/>
				<path style="fill:#060305;" d="M263.586,110.529c0-0.464-0.376-0.84-0.84-0.84s-0.84,0.376-0.84,0.84
					c0,0.464,0.376,0.84,0.84,0.84S263.586,110.993,263.586,110.529z"/>
				<path style="fill:none;stroke:#060305;stroke-linecap:round;stroke-linejoin:round;stroke-miterlimit:10;" d="M248.563,111.107
					c0.184-1.117,0.958-2.12,1.991-2.583c1.034-0.463,2.297-0.371,3.253,0.236"/>
				<path style="fill:none;stroke:#060305;stroke-linecap:round;stroke-linejoin:round;stroke-miterlimit:10;" d="M257.32,109.84
					c0.737,1.687,1.475,3.375,2.212,5.062c-0.432,0-1.136,0.029-1.568,0.029"/>
				<path style="fill:none;stroke:#060305;stroke-linecap:round;stroke-linejoin:round;stroke-miterlimit:10;" d="M260.197,107.875
					c1.354-0.537,2.709-1.075,4.063-1.612"/>
				<path style="fill:none;stroke:#060305;stroke-linecap:round;stroke-linejoin:round;stroke-miterlimit:10;" d="M256.853,117.787
					c0.525-0.029,1.051-0.058,1.576-0.087"/>
			</g>
		</g>
		<g>
			<polygon style="fill:#E73A3C;" points="200.063,225.385 326.607,216.042 322.736,206.585 201.764,215.371 			"/>
			<path style="fill:none;stroke:#060305;stroke-linecap:round;stroke-linejoin:round;stroke-miterlimit:10;" d="M232.711,218.187
				c30.286-3.229,60.572-6.458,90.858-9.687"/>
			<path style="fill:none;stroke:#060305;stroke-linecap:round;stroke-linejoin:round;stroke-miterlimit:10;" d="M323.568,212.553
				c-17.917,1.74-35.833,3.479-53.75,5.219"/>
		</g>
		<g>
			<g>
				<path style="fill:#C1D6FE;" d="M239.09,215.615l-38.581,15.914l-26.52-64.295c-4.395-10.654,0.68-22.853,11.334-27.248h0
					c10.654-4.395,22.853,0.68,27.248,11.334L239.09,215.615z"/>
				<path style="fill:none;stroke:#FFFFFF;stroke-linecap:round;stroke-miterlimit:10;" d="M178.519,145.611
					c-4.505,5.872-5.464,14.264-2.4,21.001c3.204,7.044,6.387,13.717,9.642,20.738"/>
				<path style="fill:none;stroke:#060305;stroke-linecap:round;stroke-linejoin:round;stroke-miterlimit:10;" d="M184.087,155.875
					c5.604-2.22,11.207-4.439,16.811-6.659"/>
				<path style="fill:none;stroke:#060305;stroke-linecap:round;stroke-linejoin:round;stroke-miterlimit:10;" d="M185.054,162.743
					c6.523-3.182,13.046-6.365,19.569-9.547"/>
				<path style="fill:none;stroke:#060305;stroke-linecap:round;stroke-linejoin:round;stroke-miterlimit:10;" d="M194.206,172.149
					c3.213-1.73,6.426-3.46,9.638-5.19"/>
				<path style="fill:none;stroke:#060305;stroke-linecap:round;stroke-linejoin:round;stroke-miterlimit:10;" d="M192.238,180.822
					c6.852-2.931,13.704-5.862,20.557-8.794"/>
				<path style="fill:none;stroke:#060305;stroke-linecap:round;stroke-linejoin:round;stroke-miterlimit:10;" d="M199.868,185.945
					c5.024-2.393,10.047-4.785,15.071-7.178"/>
				<path style="fill:none;stroke:#060305;stroke-linecap:round;stroke-linejoin:round;stroke-miterlimit:10;" d="M206.775,192.581
					c2.985-1.272,5.97-2.544,8.956-3.816"/>
			</g>
			<g>
				<path style="fill:#C1D6FE;" d="M264.547,210.898l-40.902,8.296l-13.826-68.161c-2.291-11.295,5.008-22.308,16.303-24.599l0,0
					c11.295-2.291,22.308,5.008,24.599,16.303L264.547,210.898z"/>
				<path style="fill:none;stroke:#060305;stroke-linecap:round;stroke-linejoin:round;stroke-miterlimit:10;" d="M219.604,201.018
					c-3.038-15.127-6.076-30.254-9.114-45.381c-0.654-3.256-1.353-7.346-1.788-10.638"/>
				<path style="fill:none;stroke:#FFFFFF;stroke-linecap:round;stroke-miterlimit:10;" d="M216.175,132.831
					c-3.261,4.597-4.54,10.553-3.452,16.083c3.655,18.579,7.396,36.845,11.229,55.388"/>
				<path style="fill:none;stroke:#060305;stroke-linecap:round;stroke-linejoin:round;stroke-miterlimit:10;" d="M218.926,145.513
					c7.164-1.172,14.328-2.344,21.492-3.516"/>
				<path style="fill:none;stroke:#060305;stroke-linecap:round;stroke-linejoin:round;stroke-miterlimit:10;" d="M225.146,136.044
					c2.712-0.607,5.423-1.214,8.135-1.821"/>
				<path style="fill:none;stroke:#060305;stroke-linecap:round;stroke-linejoin:round;stroke-miterlimit:10;" d="M219.651,149.124
					c9.299-1.623,18.598-3.247,27.896-4.87"/>
				<path style="fill:none;stroke:#060305;stroke-linecap:round;stroke-linejoin:round;stroke-miterlimit:10;" d="M220.66,160.376
					c8.16-1.208,16.32-2.416,24.479-3.624"/>
				<path style="fill:none;stroke:#060305;stroke-linecap:round;stroke-linejoin:round;stroke-miterlimit:10;" d="M223.146,166.378
					c8.651-1.476,17.302-2.952,25.953-4.429"/>
				<path style="fill:none;stroke:#060305;stroke-linecap:round;stroke-linejoin:round;stroke-miterlimit:10;" d="M226.066,176.248
					c8.306-1.483,16.611-2.966,24.917-4.449"/>
				<path style="fill:none;stroke:#060305;stroke-linecap:round;stroke-linejoin:round;stroke-miterlimit:10;" d="M226.082,183.753
					c7.666-1.124,15.331-2.247,22.997-3.371"/>
				<path style="fill:none;stroke:#060305;stroke-linecap:round;stroke-linejoin:round;stroke-miterlimit:10;" d="M228.06,192.406
					c9.299-1.387,18.597-2.775,27.896-4.162"/>
				<path style="fill:none;stroke:#060305;stroke-linecap:round;stroke-linejoin:round;stroke-miterlimit:10;" d="M239.662,198.511
					c4.86-0.906,9.721-1.813,14.581-2.719"/>
			</g>
		</g>
		<g>
			<g>
				<path style="fill:#FFCAB5;" d="M235.348,217.958c-3.439-4.126-7.229-8.364-10.668-12.49c1.893-0.345,3.786-0.689,5.679-1.033
					c1.063-0.193,2.163-0.402,3.051-1.017c0.889-0.614,1.392-1.744,1.063-2.774c-6.705-2.592-13.516-5.389-20.242-7.928
					c-5.538-2.091-11.749-2.36-17.447-0.752l-4.61,31.446c5.959,0.935,11.918,1.87,17.877,2.805c1.27,0.2,2.559,0.4,3.837,0.253
					c1.277-0.146,2.364-0.493,3.141-1.518c1.501,0.42,3.042,0.844,4.595,0.708c1.553-0.137,3.303-0.928,3.912-2.363
					c0.935,0.732,2.22,0.996,3.368,0.689c1.148-0.306,2.193-1.244,2.64-2.345c0.829,0.057,1.674,0.083,2.477-0.131
					c0.803-0.213,1.568-0.699,1.943-1.44C236.338,219.326,235.88,218.596,235.348,217.958z"/>
				<path style="fill:none;stroke:#060305;stroke-linecap:round;stroke-linejoin:round;stroke-miterlimit:10;" d="M215.145,225.047
					c0.927-0.032,1.854-0.064,2.78-0.095"/>
				<path style="fill:none;stroke:#060305;stroke-linecap:round;stroke-linejoin:round;stroke-miterlimit:10;" d="M221.008,221.882
					c1.632,0.601,3.264,1.203,4.896,1.804"/>
				<path style="fill:none;stroke:#060305;stroke-linecap:round;stroke-linejoin:round;stroke-miterlimit:10;" d="M227.338,219.073
					c1.581,0.91,3.161,1.819,4.742,2.729"/>
				<path style="fill:none;stroke:#060305;stroke-linecap:round;stroke-linejoin:round;stroke-miterlimit:10;" d="M220.87,201.67
					c1.622,1.469,3.243,2.939,4.865,4.408"/>
			</g>
			<g>
				<path style="fill:#E73A3C;" d="M199.095,189.741l-22.239-6.567l-18.41,34.706l17.892,52.511
					c1.743,5.115,9.171,4.482,10.022-0.855L199.095,189.741z"/>
				<path style="fill:none;stroke:#060305;stroke-linecap:round;stroke-linejoin:round;stroke-miterlimit:10;" d="M175.428,182.982
					c1.729,0.416,3.458,0.831,5.187,1.247c-2.191-2.014-4.045-3.344-6.235-5.358"/>
				<path style="fill:none;stroke:#060305;stroke-linecap:round;stroke-linejoin:round;stroke-miterlimit:10;" d="M191.064,188.078
					c-5.678,18.537-11.356,37.075-17.034,55.612"/>
				<path style="fill:none;stroke:#060305;stroke-linecap:round;stroke-linejoin:round;stroke-miterlimit:10;" d="M193.255,189.204
					c-5.08,23.814-10.159,47.628-15.239,71.441"/>
			</g>
		</g>
		<g>
			<path style="fill:#FFCAB5;" d="M368.926,182.276c0.282-4.796-0.204-10.236-3.9-12.776c-3.089-2.123-6.663-3.143-10.4-3.438
				c-2.376-0.187-4.811,0.493-6.746,1.885c-1.935,1.392-3.21,3.27-3.686,5.606c-0.819,4.019-1.638,8.038-2.457,12.057
				c0.619,0.429,1.332,0.879,2.072,0.738c0.122-0.023,0.238-0.064,0.351-0.113c0.126,6.979,0.694,13.948,1.71,20.854
				c4.793,3.106,11.108,3.616,16.196,1.022c5.088-2.593,8.958-8.642,8.708-14.347C370.605,189.942,370.003,186.011,368.926,182.276z
				"/>
			<g>
				<path style="fill:#FFB800;" d="M336.979,455.627c-1.234-0.206-2.141-1.313-2.068-2.591l20.961-369.31
					c0.178-3.147-0.884-6.172-2.992-8.516c-2.108-2.345-5.003-3.724-8.152-3.876c-3.158-0.156-6.18,0.935-8.511,3.071
					c-2.331,2.136-3.68,5.052-3.8,8.211l-0.248,6.547c-0.047,1.248,0.395,2.437,1.245,3.351c0.851,0.914,2.006,1.443,3.253,1.481
					c2.383,0.08,4.433-1.641,4.767-4.001l0.53-3.742c0.069-0.489-0.258-0.937-0.745-1.018c-0.391-0.065-0.654,0.123-0.776,0.241
					c-0.123,0.118-0.32,0.375-0.268,0.768c0.179,1.36-0.779,2.608-2.14,2.787c-1.357,0.18-2.608-0.78-2.787-2.14
					c-0.245-1.864,0.39-3.683,1.743-4.989c1.353-1.307,3.192-1.878,5.047-1.569c3.168,0.529,5.297,3.435,4.846,6.617l-0.53,3.741
					c-0.691,4.88-4.927,8.436-9.854,8.271c-2.576-0.09-4.965-1.174-6.723-3.063c-1.757-1.887-2.671-4.347-2.573-6.924l0.248-6.547
					c0.171-4.496,2.091-8.646,5.408-11.686c3.317-3.04,7.618-4.592,12.112-4.371c4.479,0.221,8.602,2.18,11.602,5.517
					c3.001,3.336,4.513,7.641,4.259,12.12l-20.961,369.31c-0.078,1.369-1.251,2.417-2.621,2.34
					C337.159,455.652,337.068,455.642,336.979,455.627z"/>
				<path style="fill:none;stroke:#FFFFFF;stroke-linecap:round;stroke-miterlimit:10;" d="M330.797,77.218
					c0.894-2.883,2.796-5.442,5.298-7.13c2.502-1.688,5.587-2.494,8.595-2.244"/>
				<path style="fill:none;stroke:#FFFFFF;stroke-linecap:round;stroke-miterlimit:10;" d="M337.158,85.517
					c0.296-1.845,2.104-3.319,3.97-3.237"/>
				<path style="fill:none;stroke:#FFFFFF;stroke-linecap:round;stroke-miterlimit:10;" d="M356.178,101.824
					c-0.695,14.787-1.389,29.575-2.084,44.362"/>
				<path style="fill:none;stroke:#FFFFFF;stroke-linecap:round;stroke-miterlimit:10;" d="M351.085,201.804
					c-1.016,14.453-2.032,28.906-3.049,43.359"/>
				<path style="fill:none;stroke:#FFFFFF;stroke-linecap:round;stroke-miterlimit:10;" d="M348.35,251.851
					c-0.583,4.86-1.166,9.719-1.75,14.579"/>
			</g>
			<g>
				<path style="fill:#FFCAB5;" d="M357.932,199.518c-2.532-0.83-4.961-1.975-7.213-3.398c-0.717-0.453-1.426-0.944-1.968-1.597
					c-0.541-0.653-0.903-1.495-0.822-2.339s0.957-1.807,1.786-1.987c-1.679,0.03-3.273-1.318-3.524-2.978
					c-0.251-1.66,1.076-3.421,2.688-3.888c-1.669-0.031-3.186-1.491-3.28-3.157c-0.094-1.666,1.505-3.069,3.16-3.288
					c-1.498-0.535-2.495-2.211-2.248-3.783c0.246-1.571,1.708-2.863,3.297-2.914c3.881-0.124,7.719-0.898,11.584-0.53
					c3.102,4.354,4.491,10.149,3.918,15.464C364.738,190.437,361.891,195.924,357.932,199.518z"/>
				<path style="fill:none;stroke:#060305;stroke-linecap:round;stroke-linejoin:round;stroke-miterlimit:10;" d="M350.869,170.21
					c-1.616-0.19-3.297,0.824-3.882,2.342c-0.586,1.518-0.022,3.398,1.302,4.343c-1.612,0.213-2.801,1.837-2.74,3.462
					c0.061,1.625,1.491,3.083,3.115,3.174c-1.585,0.323-2.881,2.062-2.703,3.67c0.178,1.608,1.706,2.949,3.323,2.917
					c-0.699,0.685-1.321,1.63-1.231,2.605c0.09,0.975,0.638,1.897,1.451,2.443"/>
				<path style="fill:none;stroke:#060305;stroke-linecap:round;stroke-linejoin:round;stroke-miterlimit:10;" d="M354.263,198.247
					c1.181,0.485,2.363,0.971,3.544,1.456"/>
				<path style="fill:none;stroke:#060305;stroke-linecap:round;stroke-linejoin:round;stroke-miterlimit:10;" d="M343.735,186.314
					c0.861,0.308,1.902,0.024,2.486-0.68"/>
				<path style="fill:none;stroke:#060305;stroke-linecap:round;stroke-linejoin:round;stroke-miterlimit:10;" d="M348.296,177.143
					c2.141-0.069,4.282-0.137,6.423-0.206"/>
				<path style="fill:none;stroke:#060305;stroke-linecap:round;stroke-linejoin:round;stroke-miterlimit:10;" d="M348.548,183.429
					c2.017,0.175,4.035,0.351,6.052,0.526"/>
				<path style="fill:none;stroke:#060305;stroke-linecap:round;stroke-linejoin:round;stroke-miterlimit:10;" d="M349.164,190.149
					c2.222,0.307,4.443,0.614,6.665,0.921"/>
			</g>
		</g>
	</g>
</g>
</svg>
